<svg xmlns="http://www.w3.org/2000/svg" version="1.0" viewBox="0 0 1732 940"><path fill-opacity=".5" stroke="#000" stroke-opacity=".5" stroke-width=".5" d="M1090.4 404c0 14 .2 19.8.3 12.7.2-7 .2-18.4 0-25.5-.1-7-.3-1.2-.3 12.8zm-177 0c0 13.5.2 19 .3 12.2.2-6.7.2-17.7 0-24.5-.1-6.7-.3-1.2-.3 12.3zm-205.9 45c7.7 7.7 14.2 14 14.5 14 .2 0-5.8-6.3-13.5-14s-14.2-14-14.5-14c-.2 0 5.8 6.3 13.5 14zm356.8 176.7c3.1.2 8.3.2 11.5 0 3.1-.2.5-.3-5.8-.3s-8.9.1-5.7.3z"/><path fill-opacity=".8" stroke="#000" stroke-opacity=".8" stroke-width=".5" d="M998.8 397.7c4.6.2 11.8.2 16 0 4.2-.1.5-.3-8.3-.3s-12.3.2-7.7.3zm-219 108c3.9.2 10.5.2 14.5 0 3.9-.1.7-.3-7.3-.3s-11.2.2-7.2.3z"/><g fill-opacity=".9" stroke="#000" stroke-opacity=".9" stroke-width=".5"><path d="M731.5 316.9c-3.3.3 3.5.6 15 .6 11.7 0 18.4-.3 15-.6-7.2-.8-21.7-.8-30 0zm331.1 2.3c-.3 1.3-.6 8.6-.6 16.3 0 18.9-.1 18.5 6.9 18.3l5.6-.2-5-.3c-2.7-.3-5.3-1-5.7-1.6-1.4-2.2-.9-31.3.5-32.5.7-.6 4-1.3 7.2-1.5l6-.3-7.1-.2c-6.7-.2-7.2 0-7.8 2zm-149.1 1.2c-15.9 5-28.4 19.1-33 37.1-2.3 9.2-2 10.6 3.6 17.6 5.5 6.9 6.7 8.2 5.4 5.9-1.3-2.2-6.9-9.4-7.9-10.2-1.6-1.1-1-9.9 1.3-17.4 4.5-15.2 15.5-26.6 30.8-31.9 7-2.5 6.9-3.3-.2-1.1zm171.5-1.1c0 .3 2.5 1.3 5.5 2.2 15 4.3 25.6 14.7 31.6 30.9 1.1 2.8 1.7 3.7 1.4 2.1-2.2-11.5-13.2-25.1-24.7-30.8-6.8-3.3-13.8-5.5-13.8-4.4zm-388.9 4.8c-5.1 1.7-9.1 3.3-8.8 3.5.5.5 14.1-3.5 19.2-5.6 4.7-2-1.7-.6-10.4 2.1zm-21 8.4c-5.2 2.5-9.2 4.7-9 5 .3.2 5-1.8 10.4-4.5 5.5-2.7 9.6-4.9 9-4.9-.5-.1-5.2 2-10.4 4.4zm-19.7 11.4c-5 3.2-9.5 6.4-9.9 7.1-.6 1 7.3-3.9 11-6.8.6-.4 2.7-1.8 4.8-3.1 3.2-1.9 4.5-3.1 3.4-3.1-.1 0-4.3 2.6-9.3 5.9zM631 364c-6.7 6.7-12 12.4-11.6 12.7.3.3 1.8-1 3.3-2.8 3.6-4.6 15.1-16 18.7-18.7 1.6-1.2 2.6-2.5 2.3-2.8s-6 4.9-12.7 11.6zm447.3-8.6c5 1.8 7.1 3.9 9.6 9 1.2 2.2 2.1 3.5 2.1 2.8 0-2.1-4.1-8.6-6.6-10.5-1.3-.9-3.8-2-5.6-2.3-3.2-.5-3.2-.5.5 1zM849.4 379c11.7 13.1 16.1 19.4 23.1 33.3 3.6 7 6.5 12.3 6.5 11.7 0-1.9-10.2-21.4-14.6-28-2.4-3.6-8.5-10.8-13.5-16l-9.1-9.5zm62.6 20.2c0 19.6-.3 27.8-1.1 26.8-.7-1.1-.8-.4-.3 2.5 1.7 10.7 2.4 3.6 2.4-25.8 0-17.4-.2-31.7-.5-31.7s-.5 12.7-.5 28.2zm214.4 1.3c0 16.5.2 23.4.3 15.3.2-8.1.2-21.6 0-30-.1-8.4-.3-1.8-.3 14.7zm-35.2 2.5c-.1 25.5.1 30.7 1.7 38.6 2.6 12.5 7.7 20.3 18.2 27.8l2.4 1.7-3 2.5c-7.7 6.6-12.9 12.2-15 16.4-2.2 4.5-8 23.9-7.2 24.6.2.2 1.6-4 3.1-9.4 4.6-15.8 8.2-21.4 19.4-29.9 3.6-2.8 4.2-5.9 1.3-6.8s-11.9-10.1-14.1-14.5c-4.7-9.3-5.3-13.8-6-48l-.6-32.5zm-476.5-20.3c-4.8 6.7-12.9 20.4-12.4 20.9.4.5 4.7-6.1 4.7-7.2 0-.3 2.4-3.9 5.3-8.2 6.4-9.5 6.9-10.2 6.3-10.2-.2 0-2 2.1-3.9 4.7zm24.2 0c-5.7 6-10.9 12.6-13.9 17.8-3.2 5.4-1.3 3.4 4.5-5 2.7-3.9 7.1-9.4 9.9-12.3 2.7-2.8 4.7-5.2 4.5-5.2-.3 0-2.5 2.1-5 4.7zm-38.8 24.4c-.5 1.3-2.2 5.8-3.9 9.9-3.1 8-6.8 21.8-6 22.6.3.3 1.4-3.3 2.6-7.8 1.1-4.6 3.6-12.3 5.5-17.3 2-4.9 3.4-9.1 3.2-9.4-.3-.2-.9.7-1.4 2zm292.4 3.6c.4 1 2.3 6.1 4.2 11.3 1.8 5.2 3.1 7.9 2.7 6-.8-4.1-6.3-19-7.1-19-.3 0-.2.8.2 1.7zm-217.6 17.1c-2.7 2.7-4.9 5.5-4.9 6.3s.8.2 1.8-1.3c2.6-3.9 7.1-7.8 9-7.8s44.2 42.2 44.2 44.1c0 .7-1.7 3.1-3.7 5.4l-3.8 4 4.3-4c2.3-2.1 4.2-4.5 4.2-5.3 0-1.5-41.2-43.7-44.3-45.4-1.5-.8-2.7 0-6.8 4zm204.2-1.8c0 .3.9 3.4 2 7s2.7 9.9 3.4 14c.8 4.5 1.3 6.2 1.4 4.2.1-4.3-2.7-16.5-5-21.6-.9-2.3-1.8-3.9-1.8-3.6zm-192.6 26.2c8.8 8.9 16.1 16.4 16.3 16.7.1.2.2 0 .2-.6 0-1-31-32.3-32-32.3-.3 0 6.7 7.3 15.5 16.2zm442.5-11.8c0 2 4.3 7.5 7.8 9.9 3.6 2.6 6.9 3.9 12.5 5.1l2.8.7-.3 15.2-.3 15.2-3 .7c-2.9.6-2.9.6.5.5l3.5-.2v-15.9c0-17.5.2-17-6.6-18.1-4.9-.7-11.1-5-14.3-9.8-1.4-2.3-2.6-3.7-2.6-3.3zm-163.7 23.9c-5.3 18.5-6.6 25.7-1.9 10.5 3.7-12.4 7.8-27.9 7.4-28.4-.2-.2-2.7 7.8-5.5 17.9zm-272.4 15.8c-5.3 5.5-9.3 9.9-8.9 9.9.8 0 19-18.5 19-19.4s.4-1.2-10.1 9.5zm313.6-7.1c2.3 9.8 6.9 25.9 7.2 25.6.6-.6-4.6-21.2-6.3-24.9-1.1-2.3-1.4-2.5-.9-.7z"/><path d="M955.7 496.8c-2 7.1-3.7 13.3-3.6 13.8.1 1.3 6.5-18.8 7.3-23 1.3-6.8 0-3.6-3.7 9.2zm183.4-6.7c-4.5 2.7-10 9.6-10 12.4 0 .5.7-.4 1.6-2 2.4-4.7 6.4-8.6 10.8-10.6 2.2-1 3.3-1.9 2.5-1.9s-3 .9-4.9 2.1zm-449.2 15.4c-5.3 5.2-9.3 9.5-9 9.5.4 0 4.9-4.3 10.1-9.5s9.2-9.5 9-9.5c-.3 0-4.8 4.3-10.1 9.5zm223.8-3c-.3 1.1-1.1 4.6-1.7 7.9-.7 3.2-2.1 8.3-3.1 11.4-1 3-1.7 5.7-1.4 6 .5.6.7 0 3.5-8.7 1.1-3.5 2-7.4 2-8.7 0-3 1.6-3.9 3-1.7.8 1.4.9 1.2.4-1.2-.4-1.7-1-3.9-1.4-5-.7-2-.7-2-1.3 0zm-164.1 5.7c-.9 3.6-.7 9.7.4 11.9 1 1.8 2.4 1.9 32.5 1.9s31.5-.1 32.5-1.9c1.8-3.5 1-14.1-1.2-14.1-.5 0-.4.8.2 1.9 1.1 2.2 1.4 9 .4 11.5-.5 1.4-4.3 1.6-32 1.6h-31.3l-.7-3.7c-.4-2-.2-5.4.3-7.5.6-2.1.7-3.8.3-3.8s-1 1-1.4 2.2zm-156.5 6.7c-.1 1.8 6.8 19.3 8.2 20.6.7.7.8.5.4-.5-.3-.8-2-5.1-3.8-9.5-1.7-4.4-3.5-8.9-4-10-.4-1.1-.8-1.4-.8-.6zm283 7.1c-9.9 25-34.3 51-60.9 65-3.4 1.8-6 3.5-5.8 3.8 1 .9 19.3-10.3 27.6-16.9 12.7-10 23-21.5 31.7-35.4 3.8-6 10.5-20.4 10.1-21.7-.2-.4-1.4 1.9-2.7 5.2zm207.1 10.7c-1.8 7-3.5 13.9-3.9 15.3-.3 1.4-.3 2.3 0 2 1-.9 7.9-26.9 7.5-28.6-.2-.9-1.8 4.2-3.6 11.3zM946.6 529c-.5 1.9-2.8 10-5.2 18-4.2 13.8-4.9 16.9-4 15.9 1-1 10.6-34.4 10.3-35.8-.2-.9-.7 0-1.1 1.9zm-321.5 11.7c5 8.3 18.6 24.1 24.4 28.3 1.1.8-2.1-2.8-7.1-8.1-5.1-5.3-11.3-12.8-13.9-16.7-5.1-7.6-7.2-9.8-3.4-3.5zm271.7 8.9c-2.7 4.6-4.8 9.5-4.7 10.7.1 1.7.3 1.5.8-.8.4-1.7 2.4-5.5 4.3-8.5 3.1-4.8 5.5-10.1 4.6-10-.2.1-2.4 3.9-5 8.6zm-290.7-4.4c6.2 12.1 28.6 37.5 40.2 45.6 6.8 4.8 5.8 3.3-2.2-3.2-12.9-10.4-28.6-28.1-35.8-40.4-2.6-4.4-4.2-5.9-2.2-2zm471.5 8.5c-2.5 10.6-3.7 13.5-5.4 12.8-1.4-.5-1.5-.4-.4.6 1 1.1 1.5 1 2.6-.1 1.4-1.5 5.1-14.8 4.3-15.6-.3-.3-.8.8-1.1 2.3zm-48.5.5c-.1 1.1 5.9 23.2 6.5 23.7.7.8.4-.8-2.1-10.3-2.5-9.3-4.3-14.8-4.4-13.4zm-156 8.3c-3 4.4-17.5 19.4-22.1 22.8-1.9 1.5-2.9 2.7-2.3 2.7.7 0 5.9-4.6 11.6-10.3 10.3-10.3 17.6-18.7 16-18.7-.4 0-1.9 1.6-3.2 3.5zm163 17c-.2 1.7 7.2 26.6 7.7 26 .3-.2-.4-3.5-1.6-7.2-1.1-3.8-3-9.7-4-13.3-1.1-3.6-2.1-6.1-2.1-5.5zm-359.2 8.3c3 2 15.1 7.5 15.6 7 .2-.2-3.7-2.2-8.8-4.5s-8.1-3.4-6.8-2.5zm128.8 3.9c-.4.3-4.8 2.1-9.9 3.9s-8.7 3.3-8 3.3c.7.1 4.3-1 8.1-2.3 7.1-2.5 13.4-5.5 11.5-5.6-.6 0-1.4.3-1.7.7z"/><path d="M654.3 596.3c2.9 2.5 18.7 11.2 18.7 10.3 0-.2-3.5-2.4-7.7-4.7-4.3-2.3-9.1-5.1-10.8-6.1l-3-2zm87 27.4c3.2.2 8.1.2 11 0s.3-.3-5.8-.3c-6 0-8.4.1-5.2.3z"/></g><path fill-opacity=".4" stroke="#000" stroke-opacity=".4" stroke-width=".5" d="M1061.4 335.5c0 8.8.2 12.3.3 7.7.2-4.6.2-11.8 0-16-.1-4.2-.3-.5-.3 8.3zm66 74.5c0 8.5.2 12 .3 7.7.2-4.2.2-11.2 0-15.5-.1-4.2-.3-.7-.3 7.8zm26 61.5c0 8.8.2 12.3.3 7.7.2-4.6.2-11.8 0-16-.1-4.2-.3-.5-.3 8.3z"/><g stroke="#000" stroke-width=".5"><path d="M730.5 317.9c-25.2 2.5-57.7 14.1-74 26.4-.5.4-3.4 2.3-6.4 4.3-8.3 5.6-19.4 15.7-27.6 25.4-3.4 3.9-15.5 21.5-15.5 22.4 0 .4-1.1 2.3-2.3 4.4-3.7 5.7-9.5 21.2-12.3 32.5-1.4 5.6-3 12.2-3.7 14.7-1.5 6-1.5 40.1 0 46 .7 2.5 1.9 7.6 2.8 11.5 4.3 18.6 12.9 37.3 24 52 26.1 34.7 58 54.4 102 63 10.8 2.1 33.5 2.9 45.6 1.6 15.5-1.7 36.5-7 47.6-12.2 2.4-1 4.5-1.9 4.8-1.9 2.2 0 30.3-17.4 33-20.5.6-.6 3.4-3.1 6.3-5.4 4.5-3.7 11.8-11.5 19.7-21.2 6.8-8.3 16.6-25.5 20.2-35.2 13.7-37.8 13.6-73.4-.3-110.1-4-10.4-9.4-21.6-10.6-21.6-.4 0-.8-.6-.8-1.3-.1-2.3-12.9-19.1-21.1-27.5-4.5-4.6-10.8-10.3-13.8-12.5-3.1-2.3-5.8-4.4-6.1-4.7-1.5-1.6-11.7-8-12.7-8-.6 0-1.3-.4-1.5-.8-.4-1-21-11.2-22.7-11.2-.7 0-2.7-.7-4.4-1.4-14.2-6.5-48.7-10.8-70.2-8.7zm38.1 19.1c10.1 1.8 21.7 4.8 28.9 7.6 7.7 2.8 23.6 10.5 25.7 12.4.7.6 2.5 1.9 3.9 2.8 9.8 6.4 14.9 10.6 23.4 19.6 11.2 11.9 15.9 18.5 22.5 31.7 5.6 11 8.3 18.2 11.2 28.9 1.7 6.3 2.1 10.9 2.2 29 .1 19.2-.2 22.6-2.2 31.4-1.3 5.5-2.9 11.4-3.6 13-.8 1.7-2.7 6.2-4.2 10.1-11.9 28.9-39 55.5-70.9 69.3-11.5 4.9-19.2 7.1-37 10.4-6.6 1.2-37.6 1.1-44-.1-24.1-4.6-32.8-7.4-50.5-16.7-4.2-2.2-15.9-10.2-21.4-14.6-19.1-15.5-35.4-39.8-42.1-62.8-.9-3-2-6.5-2.5-7.6-.5-1.2-1.6-8.6-2.5-16.3-1.5-13-1.5-15.3 0-27.8 2.1-18.1 4.7-27.5 11.6-42.1 8.9-18.6 19.1-31.7 35.9-46.2 18-15.6 46.4-28.5 70.5-31.9 8.7-1.2 38.1-1.3 45.1-.1z"/><path d="M674.9 429.1c-2.1 2.2-3.9 4.6-3.9 5.2 0 .7 7.2 8.4 16 17.1 10.4 10.3 16 16.5 16 17.9 0 1.3-5.4 7.5-15.2 17.4-8.4 8.4-15.6 16.1-16 17.2-.5 1.4.4 2.9 3.8 6.1 2.4 2.3 4.9 4 5.4 3.8 2-.6 44-43.2 44-44.6 0-2.1-42.2-44.2-44.3-44.2-1 0-3.6 1.8-5.8 4.1zm76.1 79.5c-1.1 2.9-1.3 6.8-.4 10.1l.6 2.3h31.3c34.8 0 32.5.5 32.5-7.1 0-8.3 1.8-7.9-32.6-7.9H752zm167.8-188.7c-18.4 5-30.9 16.7-35.9 33.5-2.3 7.5-2.9 16.3-1.3 17.4 1.3 1 6.1 7.5 11.1 14.9 6.5 9.9 11.9 21.7 17.6 38.3 1 2.9 1.3-1.3 1.8-26 .6-33.1 1-35.3 7.1-40.2 3.2-2.5 5.3-3.2 12.1-4 4.5-.6 8.5-1.5 8.9-2.2.9-1.3 1.1-29.8.2-32s-12.8-2-21.6.3zm145.5-.8c-1.4 1.4-1.9 29.1-.7 32.3.4 1.1 1.9 1.6 4.5 1.6 5.6 0 13.1 1.9 15.4 3.8 3.3 2.7 6.2 8.3 7.4 14 .6 3.1 1.1 16.7 1.1 33 .1 30.2 1.1 39.3 5.3 48.5 2.5 5.4 11.3 15.1 14.8 16.2 2.9.9 2.3 4-1.3 6.8-6.8 5.1-11.6 10.4-14 15.2-2.6 5.1-7.1 20.1-12.8 43-6.9 27.2-8.3 32-9.5 33.4-2.7 2.9-2.6 3.2-13.5-33.9-2.4-8-5.3-18.3-6.5-23s-4.4-15.7-7-24.5-6.9-23.4-9.6-32.5c-2.6-9.1-7.3-25.2-10.5-35.8l-5.8-19.2h-17.7c-14.5 0-17.9.3-18.9 1.5-.7.8-2.5 6.3-4 12.2-1.5 6-4.4 16.2-6.3 22.8s-4.7 16.5-6.1 22c-1.5 5.5-4.2 14.9-6 21-4.4 14.2-7 23.1-11.3 38.5-12.6 45.2-15.2 53-17.3 53-1.3 0-2.1-1-2.5-3.3-.4-1.7-1.4-5.5-2.2-8.2-.8-2.8-1.8-6.6-2.3-8.5s-2.2-7.8-3.8-13-3.7-12.9-4.7-17c-2.1-9.4-3.2-12.3-4.5-11.5-.6.3-1 1.7-1 2.9 0 2.6-3.3 13.5-5.5 18.3-.8 1.7-1.5 3.4-1.5 3.7s-1.1 3-2.5 6-2.5 5.7-2.5 6.1c0 .3-1.8 3.4-4 6.9s-4 7.1-4 8 1.6 7.8 3.6 15.4c2 7.5 4.2 16.2 4.9 19.2 2.4 9.9 7.5 29.2 8.1 30.1.6 1 42.5 1.3 45.9.3 1.6-.4 2.9-3.9 7.3-19.7 7.4-26.7 15.2-55.2 20.8-75.2 2.6-9.4 5.7-20.8 6.9-25.5 1.3-4.7 3.5-12.8 5-18s3.3-11.6 3.9-14.2c1.3-5.3 3.1-7.7 4.6-6.2 1.4 1.4 5.8 14.3 7.6 22.2 1.4 6.3 4.1 16.1 16.9 62.2 8.7 31 13.6 48.3 14.5 51.5.5 1.6 1.9 6.9 3.1 11.6 1.2 4.8 2.5 9.3 3 10 .6 1.1 5.6 1.5 22.6 1.7 11.9.2 22.7.1 23.9-.2 1.3-.4 2.4-1.6 2.8-3.3.4-1.6 2.4-9.8 4.6-18.3 7.9-31.5 14.9-59.8 17.6-71 4-17.1 9-32.2 12.1-36.2 3.5-4.5 7.4-6.9 13.8-8.3l5-1.1.3-15.2.3-15.1-2.8-.6c-10.9-2.4-18.1-8.1-20.9-16.7-1.5-4.4-1.9-11.1-2.4-40.3-.6-28.5-1-36.1-2.4-41-5.5-19.5-15.8-30.5-34.1-36.5-8.5-2.7-23.4-3.9-25.2-1.9z"/></g></svg>